<svg width="330" height="223" viewBox="0 0 330 223" fill="none" xmlns="http://www.w3.org/2000/svg">
<g clip-path="url(#clip0)">
<path d="M291.725 147.306C290.127 161.941 286.806 173.691 282.247 183.062C276.181 195.548 265.805 200.579 256.536 205.843C253.857 207.361 251.072 208.655 248.207 209.713C231.34 215.969 212.462 214.31 197.633 211.007C187.232 208.688 176.675 207.261 166.062 206.741C163.035 206.595 160.004 206.523 156.971 206.524C152.294 206.53 68.0807 208.238 47.577 163.876C42.5148 152.933 39.0449 139.565 37.7983 123.27C34.2709 77.2025 53.6584 46.9468 78.6662 27.1706C125.973 -10.239 190.818 -8.67013 237.427 29.7249C268.474 55.3 297.543 94.0063 291.725 147.306Z" fill="#3F3D56"/>
<path d="M282.247 183.062C276.181 195.548 267.928 203.82 258.659 209.084C255.98 210.603 253.196 211.897 250.33 212.955C233.463 219.211 214.585 217.551 199.756 214.248C189.356 211.929 178.798 210.503 168.185 209.982C165.158 209.836 162.128 209.764 159.095 209.765C154.418 209.772 149.742 209.957 145.067 210.323C114.684 212.708 68.0807 208.238 47.577 163.876L98.8787 57.6857L117.972 110.074L124.065 126.797L140.86 102.168L149.531 89.4519L189.022 137.837L200.184 111.494L277.461 178.89L281.771 182.647L282.247 183.062Z" fill="#F2F2F2"/>
<path opacity="0.1" d="M91.5993 91.7209L99.4853 73.2446L110.404 100.149L101.002 80.6999L91.5993 91.7209Z" fill="black"/>
<path opacity="0.1" d="M168.185 209.982C165.158 209.836 162.128 209.764 159.095 209.765L124.065 126.797L168.185 209.982Z" fill="black"/>
<path opacity="0.1" d="M140.86 102.168L149.531 94.9623L188.961 143.584L148.925 102.094L140.86 102.168Z" fill="black"/>
<path opacity="0.1" d="M258.659 209.084C255.98 210.603 253.196 211.897 250.33 212.955L189.022 137.837L258.659 209.084Z" fill="black"/>
<path d="M146.195 34.023C146.697 34.023 147.105 33.5877 147.105 33.0506C147.105 32.5136 146.697 32.0782 146.195 32.0782C145.692 32.0782 145.285 32.5136 145.285 33.0506C145.285 33.5877 145.692 34.023 146.195 34.023Z" fill="#F2F2F2"/>
<path d="M121.02 67.4101C121.523 67.4101 121.93 66.9747 121.93 66.4376C121.93 65.9006 121.523 65.4652 121.02 65.4652C120.518 65.4652 120.11 65.9006 120.11 66.4376C120.11 66.9747 120.518 67.4101 121.02 67.4101Z" fill="#F2F2F2"/>
<path d="M182.592 72.9206C182.927 72.9206 183.199 72.6304 183.199 72.2723C183.199 71.9143 182.927 71.624 182.592 71.624C182.257 71.624 181.985 71.9143 181.985 72.2723C181.985 72.6304 182.257 72.9206 182.592 72.9206Z" fill="#F2F2F2"/>
<path d="M55.2022 87.5071C55.5372 87.5071 55.8088 87.2169 55.8088 86.8589C55.8088 86.5008 55.5372 86.2106 55.2022 86.2106C54.8672 86.2106 54.5956 86.5008 54.5956 86.8589C54.5956 87.2169 54.8672 87.5071 55.2022 87.5071Z" fill="#F2F2F2"/>
<path d="M186.232 32.7265C186.567 32.7265 186.838 32.4362 186.838 32.0782C186.838 31.7201 186.567 31.4299 186.232 31.4299C185.897 31.4299 185.625 31.7201 185.625 32.0782C185.625 32.4362 185.897 32.7265 186.232 32.7265Z" fill="#F2F2F2"/>
<path d="M223.842 63.8445C224.177 63.8445 224.449 63.5542 224.449 63.1962C224.449 62.8382 224.177 62.5479 223.842 62.5479C223.507 62.5479 223.235 62.8382 223.235 63.1962C223.235 63.5542 223.507 63.8445 223.842 63.8445Z" fill="#F2F2F2"/>
<path d="M260.846 113.115C261.181 113.115 261.452 112.824 261.452 112.466C261.452 112.108 261.181 111.818 260.846 111.818C260.511 111.818 260.239 112.108 260.239 112.466C260.239 112.824 260.511 113.115 260.846 113.115Z" fill="#F2F2F2"/>
<path d="M92.8125 39.2936H91.9754V38.3989H91.5265V39.2936H90.6893V39.7736H91.5265V40.6679H91.9754V39.7736H92.8125V39.2936Z" fill="#F2F2F2"/>
<path d="M257.206 137.51H256.369V136.615H255.92V137.51H255.083V137.99H255.92V138.884H256.369V137.99H257.206V137.51Z" fill="#F2F2F2"/>
<path d="M330 199.013C330 204.384 256.127 223 165 223C73.873 223 0 204.384 0 199.013C0 193.643 73.873 203.551 165 203.551C256.127 203.551 330 193.643 330 199.013Z" fill="#3F3D56"/>
<path opacity="0.1" d="M330 199.013C330 204.384 256.127 223 165 223C73.873 223 0 204.384 0 199.013C0 193.643 73.873 203.551 165 203.551C256.127 203.551 330 193.643 330 199.013Z" fill="black"/>
<path d="M165 208.738C256.127 208.738 330 204.384 330 199.013C330 193.643 256.127 189.289 165 189.289C73.873 189.289 0 193.643 0 199.013C0 204.384 73.873 208.738 165 208.738Z" fill="#3F3D56"/>
<path d="M172.279 185.399C172.279 196.14 167.798 193.179 162.27 193.179C156.742 193.179 152.261 196.14 152.261 185.399C152.261 174.658 162.27 154.281 162.27 154.281C162.27 154.281 172.279 174.658 172.279 185.399Z" fill="#FF6584"/>
<path opacity="0.1" d="M166.82 189.509C166.82 194.391 164.783 193.045 162.27 193.045C159.758 193.045 157.721 194.391 157.721 189.509C157.721 184.626 162.27 175.364 162.27 175.364C162.27 175.364 166.82 184.626 166.82 189.509Z" fill="black"/>
<path d="M173.493 196.096H151.048C149.54 196.096 148.318 197.402 148.318 199.013C148.318 200.624 149.54 201.931 151.048 201.931H173.493C175 201.931 176.222 200.624 176.222 199.013C176.222 197.402 175 196.096 173.493 196.096Z" fill="#2F2E41"/>
<path d="M173.493 190.261H151.048C149.54 190.261 148.318 191.567 148.318 193.179C148.318 194.79 149.54 196.096 151.048 196.096H173.493C175 196.096 176.222 194.79 176.222 193.179C176.222 191.567 175 190.261 173.493 190.261Z" fill="#2F2E41"/>
<path d="M41.5533 159.003C41.5533 176.942 52.084 191.458 65.098 191.458L41.5533 159.003Z" fill="#3F3D56"/>
<path d="M65.098 191.458C65.098 173.317 76.8496 158.638 91.3724 158.638L65.098 191.458Z" fill="#A04FC6"/>
<path d="M50.084 160.629C50.084 177.669 56.7992 191.458 65.098 191.458L50.084 160.629Z" fill="#A04FC6"/>
<path d="M65.098 191.458C65.098 168.278 78.6811 149.521 95.4671 149.521L65.098 191.458Z" fill="#3F3D56"/>
<path d="M60.1448 191.687C60.1448 191.687 63.4838 191.577 64.4901 190.811C65.4964 190.045 69.6263 189.131 69.876 190.359C70.1256 191.587 74.8939 196.467 71.1242 196.5C67.3544 196.532 62.365 195.872 61.3606 195.219C60.3563 194.565 60.1448 191.687 60.1448 191.687Z" fill="#A8A8A8"/>
<path opacity="0.2" d="M71.1914 196.072C67.4217 196.105 62.4322 195.445 61.4279 194.791C60.663 194.293 60.3582 192.507 60.2562 191.682C60.1856 191.685 60.1448 191.687 60.1448 191.687C60.1448 191.687 60.3562 194.565 61.3606 195.219C62.365 195.872 67.3544 196.533 71.1242 196.5C72.2123 196.491 72.5882 196.077 72.5676 195.464C72.4164 195.834 72.0014 196.065 71.1914 196.072Z" fill="black"/>
<path d="M218.816 170.845C218.816 183.172 226.052 193.147 234.994 193.147L218.816 170.845Z" fill="#3F3D56"/>
<path d="M234.994 193.147C234.994 180.681 243.07 170.594 253.049 170.594L234.994 193.147Z" fill="#A04FC6"/>
<path d="M224.678 171.962C224.678 183.672 229.292 193.147 234.994 193.147L224.678 171.962Z" fill="#A04FC6"/>
<path d="M234.994 193.147C234.994 177.218 244.328 164.33 255.863 164.33L234.994 193.147Z" fill="#3F3D56"/>
<path d="M231.591 193.304C231.591 193.304 233.885 193.228 234.577 192.702C235.268 192.176 238.106 191.547 238.278 192.391C238.449 193.235 241.726 196.589 239.135 196.611C236.545 196.633 233.116 196.18 232.426 195.731C231.736 195.281 231.591 193.304 231.591 193.304Z" fill="#A8A8A8"/>
<path opacity="0.2" d="M239.182 196.317C236.591 196.34 233.163 195.886 232.473 195.437C231.947 195.095 231.738 193.867 231.667 193.301C231.619 193.303 231.591 193.304 231.591 193.304C231.591 193.304 231.736 195.281 232.426 195.731C233.116 196.18 236.545 196.633 239.135 196.611C239.883 196.605 240.141 196.32 240.127 195.899C240.023 196.154 239.738 196.313 239.182 196.317Z" fill="black"/>
<path d="M271.101 200.549C271.101 200.549 274.547 199.988 275.499 199.061C276.452 198.133 280.622 196.633 281.025 197.872C281.427 199.111 286.937 203.527 283.037 204.065C279.136 204.603 273.891 204.587 272.774 204.044C271.657 203.501 271.101 200.549 271.101 200.549Z" fill="#A8A8A8"/>
<path opacity="0.2" d="M283.056 203.613C279.156 204.151 273.911 204.135 272.794 203.592C271.943 203.179 271.418 201.369 271.216 200.529C271.143 200.542 271.101 200.549 271.101 200.549C271.101 200.549 271.657 203.501 272.774 204.044C273.891 204.587 279.136 204.603 283.037 204.065C284.163 203.91 284.504 203.431 284.41 202.799C284.297 203.203 283.894 203.498 283.056 203.613Z" fill="black"/>
<path d="M186.31 200.282C186.31 200.282 189.218 199.809 190.022 199.026C190.826 198.243 194.346 196.978 194.685 198.023C195.025 199.068 199.675 202.796 196.383 203.25C193.091 203.704 188.665 203.69 187.722 203.232C186.78 202.774 186.31 200.282 186.31 200.282Z" fill="#A8A8A8"/>
<path opacity="0.2" d="M196.4 202.869C193.108 203.323 188.681 203.309 187.739 202.851C187.021 202.502 186.578 200.975 186.407 200.266C186.346 200.276 186.31 200.282 186.31 200.282C186.31 200.282 186.78 202.774 187.722 203.232C188.665 203.69 193.091 203.704 196.383 203.25C197.334 203.119 197.621 202.715 197.543 202.182C197.447 202.522 197.107 202.771 196.4 202.869Z" fill="black"/>
<path d="M37.1217 198.731C37.1217 198.731 39.3854 198.362 40.0112 197.753C40.6371 197.143 43.3771 196.158 43.6415 196.972C43.9059 197.786 47.5262 200.688 44.9634 201.041C42.4006 201.394 38.9545 201.384 38.2208 201.027C37.487 200.67 37.1217 198.731 37.1217 198.731Z" fill="#A8A8A8"/>
<path opacity="0.2" d="M44.9763 200.744C42.4135 201.098 38.9674 201.087 38.2337 200.73C37.6749 200.459 37.33 199.27 37.1972 198.718C37.1494 198.726 37.1217 198.731 37.1217 198.731C37.1217 198.731 37.487 200.67 38.2208 201.027C38.9546 201.384 42.4006 201.394 44.9634 201.041C45.7032 200.939 45.9271 200.624 45.8659 200.209C45.7915 200.474 45.5269 200.668 44.9763 200.744Z" fill="black"/>
<path opacity="0.1" d="M116.378 194.915C116.378 204.711 103.602 201.681 87.9585 201.681C72.315 201.681 59.7283 204.711 59.7283 194.915C59.7283 185.119 72.503 182.989 88.1465 182.989C103.79 182.989 116.378 185.119 116.378 194.915Z" fill="black"/>
<path d="M116.378 192.503C116.378 202.299 103.602 199.269 87.9585 199.269C72.315 199.269 59.7283 202.299 59.7283 192.503C59.7283 182.707 72.503 180.577 88.1465 180.577C103.79 180.577 116.378 182.707 116.378 192.503Z" fill="#3F3D56"/>
<path d="M118.814 147.623C118.06 148.034 117.344 148.52 116.674 149.072C116.001 149.629 115.486 150.375 115.185 151.226C114.808 150.282 114.5 149.309 114.264 148.315C113.733 146.53 113.104 144.781 112.381 143.075C113.568 142.592 114.596 141.749 115.341 140.65C116.796 142.198 118.293 143.814 119.017 145.868C119.142 146.222 119.505 146.599 119.589 146.916C119.708 147.365 119.132 147.436 118.814 147.623Z" fill="#FFBFC5"/>
<path d="M132.513 185.381C134.103 185.918 135.586 186.766 136.886 187.882C136.984 187.948 137.055 188.05 137.085 188.17C137.118 188.439 136.782 188.549 136.538 188.624C135.82 188.845 135.361 189.565 134.832 190.129C134.304 190.693 133.454 191.136 132.838 190.685C132.676 190.553 132.534 190.394 132.419 190.214L129.813 186.58C130.697 186.052 131.626 185.616 132.587 185.278" fill="#F1F1F1"/>
<path d="M137.197 186.137C137.541 186.514 137.691 187.054 138.03 187.437C138.257 187.669 138.517 187.862 138.801 188.009L140.794 189.181C141.1 189.375 141.423 189.538 141.757 189.668C142.133 189.78 142.515 189.865 142.901 189.923C143.453 190.034 143.994 190.204 144.514 190.432C144.905 190.603 145.341 190.898 145.339 191.349C145.323 191.57 145.239 191.778 145.1 191.942C144.314 193 142.923 193.235 141.666 193.377C138.945 193.684 136.16 193.915 133.5 193.229C132.98 193.127 132.49 192.9 132.065 192.565C131.262 191.854 131.102 190.56 131.402 189.493C131.487 189.083 131.713 188.724 132.036 188.485C132.457 188.227 132.982 188.347 133.466 188.307C133.981 188.232 134.48 188.062 134.941 187.805C135.245 187.659 135.595 187.47 135.66 187.083C135.721 186.724 135.327 186.365 135.41 186.045C135.594 185.334 136.879 185.791 137.197 186.137Z" fill="#575A89"/>
<path opacity="0.1" d="M137.197 186.137C137.541 186.514 137.691 187.054 138.03 187.437C138.257 187.669 138.517 187.862 138.801 188.009L140.794 189.181C141.1 189.375 141.423 189.538 141.757 189.668C142.133 189.78 142.515 189.865 142.901 189.923C143.453 190.034 143.994 190.204 144.514 190.432C144.905 190.603 145.341 190.898 145.339 191.349C145.323 191.57 145.239 191.778 145.1 191.942C144.314 193 142.923 193.235 141.666 193.377C138.945 193.684 136.16 193.915 133.5 193.229C132.98 193.127 132.49 192.9 132.065 192.565C131.262 191.854 131.102 190.56 131.402 189.493C131.487 189.083 131.713 188.724 132.036 188.485C132.457 188.227 132.982 188.347 133.466 188.307C133.981 188.232 134.48 188.062 134.941 187.805C135.245 187.659 135.595 187.47 135.66 187.083C135.721 186.724 135.327 186.365 135.41 186.045C135.594 185.334 136.879 185.791 137.197 186.137Z" fill="black"/>
<path d="M141.821 197.774C142.101 197.97 142.38 198.167 142.659 198.364C142.915 198.51 143.127 198.733 143.267 199.006C143.449 199.462 143.203 199.978 142.93 200.378C142.111 201.575 140.992 202.502 139.703 203.051C139.256 203.25 138.783 203.376 138.301 203.425C138.191 203.443 138.078 203.428 137.975 203.381C137.72 203.237 137.757 202.847 137.754 202.538C137.745 201.643 137.112 200.916 136.544 200.259C135.975 199.601 135.396 198.792 135.526 197.908C135.644 197.387 135.893 196.911 136.247 196.532C136.562 196.11 136.932 195.737 137.345 195.426C137.936 195.012 138.145 195.235 138.701 195.614C139.746 196.325 140.786 197.045 141.821 197.774Z" fill="#F1F1F1"/>
<path d="M139.1 202.134C139.328 202.196 139.566 202.199 139.795 202.144C140.024 202.088 140.238 201.976 140.419 201.816C140.779 201.492 141.07 201.092 141.276 200.64C141.479 200.237 141.656 199.82 141.806 199.392C141.981 198.89 142.143 198.335 142.556 198.031C143.056 197.662 143.76 197.806 144.268 198.162C144.748 198.562 145.188 199.012 145.582 199.507C146.638 200.559 147.918 201.32 149.311 201.724C150.698 202.124 152.105 202.446 153.524 202.687C153.808 202.727 154.082 202.822 154.335 202.966C154.905 203.337 155.096 204.168 154.937 204.861C154.736 205.546 154.374 206.164 153.887 206.658C153.504 207.144 153.028 207.538 152.492 207.813C152.038 207.99 151.561 208.087 151.078 208.099C148.741 208.269 146.393 208.072 144.108 207.516C143.269 207.272 142.415 207.09 141.553 206.971C141.027 206.921 140.498 206.937 139.972 206.899C138.925 206.822 137.901 206.533 136.955 206.048C136.725 205.958 136.531 205.786 136.405 205.56C136.337 205.353 136.323 205.13 136.365 204.915L136.714 201.647C136.744 201.363 136.833 201.009 137.098 200.965C137.349 200.923 137.532 201.198 137.691 201.412C137.998 201.805 138.419 202.078 138.888 202.187C139.356 202.297 139.845 202.237 140.278 202.016" fill="#575A89"/>
<path d="M118.857 160.934C120.391 160.749 122.17 160.718 123.207 161.94C123.843 162.689 124.036 163.739 124.256 164.723C124.601 166.375 125.16 167.968 125.919 169.454C126.407 170.375 126.998 171.239 127.372 172.218C127.756 173.222 127.897 174.309 128.122 175.366C129.021 179.546 131.216 183.277 134.35 185.955C133.797 187.563 132.196 188.482 130.64 188.893C130.31 189.043 129.942 189.069 129.596 188.969C129.25 188.868 128.946 188.646 128.733 188.338C128.004 187.498 127.326 186.609 126.701 185.678C124.457 182.476 122.179 179.205 120.956 175.423C120.527 174.096 120.098 172.547 118.891 171.993C118.203 171.676 117.416 171.775 116.677 171.909C115.027 172.208 113.402 172.654 111.82 173.242C110.134 173.868 108.204 174.64 106.66 173.681C105.737 173.107 105.187 172.005 104.985 170.884C104.832 169.752 104.83 168.603 104.98 167.471C104.991 166.959 105.106 166.455 105.317 165.996C105.531 165.652 105.805 165.356 106.124 165.123C107.502 164.004 109.035 163.122 110.667 162.507C112.226 161.92 113.902 161.721 115.529 161.431C116.634 161.233 117.743 161.068 118.857 160.934Z" fill="#575A89"/>
<path opacity="0.1" d="M118.857 160.934C120.391 160.749 122.17 160.718 123.207 161.94C123.843 162.689 124.036 163.739 124.256 164.723C124.601 166.375 125.16 167.968 125.919 169.454C126.407 170.375 126.998 171.239 127.372 172.218C127.756 173.222 127.897 174.309 128.122 175.366C129.021 179.546 131.216 183.277 134.35 185.955C133.797 187.563 132.196 188.482 130.64 188.893C130.31 189.043 129.942 189.069 129.596 188.969C129.25 188.868 128.946 188.646 128.733 188.338C128.004 187.498 127.326 186.609 126.701 185.678C124.457 182.476 122.179 179.205 120.956 175.423C120.527 174.096 120.098 172.547 118.891 171.993C118.203 171.676 117.416 171.775 116.677 171.909C115.027 172.208 113.402 172.654 111.82 173.242C110.134 173.868 108.204 174.64 106.66 173.681C105.737 173.107 105.187 172.005 104.985 170.884C104.832 169.752 104.83 168.603 104.98 167.471C104.991 166.959 105.106 166.455 105.317 165.996C105.531 165.652 105.805 165.356 106.124 165.123C107.502 164.004 109.035 163.122 110.667 162.507C112.226 161.92 113.902 161.721 115.529 161.431C116.634 161.233 117.743 161.068 118.857 160.934Z" fill="black"/>
<path d="M127.638 172.756C128.35 173.14 129.004 173.636 129.577 174.228C130.169 174.973 130.618 175.835 130.9 176.765C131.026 177.075 131.104 177.405 131.129 177.743C131.141 177.911 131.116 178.081 131.057 178.238C130.999 178.395 130.907 178.536 130.79 178.65C130.506 178.845 130.169 178.933 129.833 178.9C129.388 178.904 128.943 178.891 128.499 178.863C128.229 178.861 127.961 178.806 127.709 178.703C127.478 178.577 127.27 178.408 127.093 178.205C126.311 177.429 125.671 176.505 125.205 175.479C124.882 174.72 124.352 172.971 124.859 172.182C125.381 171.368 127.086 172.421 127.638 172.756Z" fill="#FFBFC5"/>
<path d="M106.13 172.485C108.399 173.262 110.814 173.351 113.186 173.588C117.176 173.986 121.117 174.819 124.949 176.072C125.749 176.281 126.503 176.656 127.167 177.176C127.68 177.683 128.114 178.273 128.453 178.925C129.077 179.94 129.641 180.995 130.144 182.084C130.575 183.068 130.903 184.099 131.304 185.098C132.651 188.441 134.781 191.356 137.488 193.564C137.983 193.966 138.534 194.404 138.661 195.054C138.718 195.472 138.655 195.9 138.478 196.278C137.893 197.734 136.679 198.793 135.405 199.604C134.857 199.952 134.255 200.306 133.985 200.924C132.049 200.069 130.61 198.248 129.411 196.411C128.213 194.575 127.15 192.602 125.615 191.079C124.938 190.408 124.17 189.823 123.638 189.017C122.826 187.787 122.606 186.105 121.513 185.155C120.412 184.199 118.833 184.329 117.421 184.477C110.189 185.234 102.902 185.15 95.6878 184.226C94.1879 184.034 92.647 183.789 91.3477 182.965C90.0485 182.142 89.0368 180.597 89.221 178.994C89.3934 177.494 90.5623 176.305 91.8653 175.718C93.1682 175.131 94.6083 175.026 96.0135 174.857C99.4616 174.497 102.858 173.701 106.13 172.485Z" fill="#575A89"/>
<path d="M85.3849 175.6C85.563 174.328 86.0251 173.123 86.3151 171.875C86.4605 171.09 86.6445 170.313 86.8664 169.549C86.8737 169.527 86.882 169.506 86.8895 169.485C86.9632 169.478 87.0347 169.455 87.0989 169.415C87.1631 169.376 87.2185 169.322 87.2611 169.258C87.3006 169.146 87.3115 169.026 87.2926 168.908C87.2868 168.784 87.2903 168.659 87.3029 168.535C87.7774 167.685 88.2959 166.863 88.8561 166.075C89.8385 164.587 90.6895 163.006 91.5389 161.428C92.2352 160.134 92.9327 158.837 93.5092 157.478C93.9415 156.458 94.3049 155.405 94.7828 154.409C96.4838 150.864 99.5413 148.253 102.83 146.376C105.984 144.576 109.394 143.363 112.711 141.932C112.796 142.021 112.874 142.119 112.942 142.223C114.734 144.841 114.928 148.281 115.665 151.427C115.963 152.698 116.361 153.964 116.36 155.273C116.359 157.206 115.495 159.004 114.635 160.705C113.868 162.331 112.961 163.877 111.927 165.325C111.419 165.996 110.861 166.621 110.35 167.29C108.26 170.03 107.052 173.398 105.879 176.704C105.199 178.617 104.089 180.315 103.342 182.2C103.055 182.924 102.889 183.705 102.529 184.391C102.168 185.076 101.541 185.68 100.805 185.683C100.589 185.677 100.375 185.641 100.169 185.577C97.5043 184.844 95.2729 182.96 93.0588 181.215C92.6637 180.904 92.2661 180.595 91.8515 180.314C91.4329 180.031 90.9978 179.776 90.5631 179.521C90.2337 179.329 89.9043 179.136 89.5749 178.943C88.4953 178.31 87.4142 177.677 86.2894 177.143C85.9513 176.998 85.6264 176.819 85.319 176.61C85.3156 176.272 85.3377 175.934 85.3849 175.6Z" fill="#A04FC6"/>
<path d="M120.219 147.406C123.61 147.406 126.358 144.468 126.358 140.845C126.358 137.222 123.61 134.284 120.219 134.284C116.829 134.284 114.08 137.222 114.08 140.845C114.08 144.468 116.829 147.406 120.219 147.406Z" fill="#FFBFC5"/>
<path d="M124.349 137.775C124.497 138.052 124.722 138.274 124.992 138.41C125.263 138.546 125.566 138.589 125.86 138.535C126.153 138.472 126.43 138.344 126.674 138.158C126.917 137.973 127.12 137.735 127.271 137.459C127.57 136.905 127.749 136.287 127.794 135.65C127.842 135.405 127.844 135.153 127.8 134.907C127.756 134.662 127.667 134.428 127.538 134.219C127.309 133.982 127.047 133.786 126.76 133.637C126.364 133.373 126.032 133.014 125.79 132.588C125.618 132.285 125.495 131.953 125.34 131.639C124.782 130.506 123.696 129.584 122.498 129.626C121.922 129.646 121.374 129.88 120.807 129.986C118.904 130.343 116.835 129.267 115.069 130.106C114.635 130.332 114.231 130.62 113.869 130.962C113.372 131.4 112.894 131.861 112.436 132.346C112.037 132.709 111.736 133.178 111.562 133.705C111.322 134.667 111.893 135.743 111.53 136.66C111.406 136.923 111.257 137.172 111.087 137.403C110.687 138.031 111.122 140.482 111.077 141.24C111.026 141.612 111.115 141.989 111.323 142.292C111.613 142.636 112.1 142.667 112.533 142.672L113.33 142.682C113.449 142.691 113.569 142.678 113.684 142.643C113.84 142.569 113.978 142.456 114.085 142.313C114.748 141.567 114.892 139.126 115.854 139.135C116.001 139.126 116.146 139.166 116.27 139.25C116.444 139.386 116.495 139.637 116.619 139.827C116.76 140.005 116.952 140.13 117.165 140.184C117.378 140.237 117.601 140.215 117.802 140.122C118.199 139.926 118.545 139.627 118.809 139.253C119.071 138.879 119.389 138.555 119.75 138.292C120.263 137.972 120.843 137.833 121.342 137.471C121.759 137.169 121.997 136.731 122.371 136.397C122.521 136.259 122.709 136.178 122.907 136.166C123.104 136.154 123.3 136.213 123.463 136.332C124.053 136.661 124.079 137.201 124.349 137.775Z" fill="#2F2E41"/>
<path opacity="0.1" d="M110.165 149.334C111.599 149.117 113.06 149.242 114.442 149.701C114.904 149.814 115.321 150.078 115.635 150.457C115.813 150.744 115.929 151.07 115.974 151.411C116.256 152.98 116.075 154.604 115.457 156.058C115.412 156.131 115.383 156.213 115.371 156.299C115.359 156.384 115.363 156.472 115.385 156.555C115.447 156.656 115.529 156.743 115.624 156.808C115.71 156.897 115.778 157.004 115.822 157.122C115.867 157.241 115.888 157.368 115.883 157.496C115.878 157.624 115.848 157.749 115.794 157.863C115.741 157.977 115.665 158.078 115.573 158.159C115.458 158.248 115.308 158.326 115.286 158.475C115.261 158.638 115.405 158.766 115.516 158.881C115.68 159.052 115.8 159.264 115.867 159.498C115.933 159.732 115.944 159.98 115.897 160.219C115.837 160.412 115.795 160.611 115.774 160.812C115.797 161.059 115.865 161.299 115.974 161.518C116.161 162.011 116.224 162.549 116.159 163.077C116.1 163.326 116.094 163.587 116.142 163.839C116.209 164.006 116.301 164.161 116.413 164.297C116.854 164.933 116.951 165.997 116.311 166.396C116.585 166.546 116.808 166.784 116.95 167.076C117.091 167.369 117.144 167.701 117.1 168.026C117.482 167.808 117.945 168.087 118.264 168.401C118.582 168.715 118.907 169.099 119.34 169.122C119.642 169.139 119.96 168.971 120.235 169.104C120.654 169.306 120.639 170.031 121.051 170.249C121.412 170.44 121.915 170.128 122.223 170.406C122.33 170.503 122.385 170.652 122.488 170.754C122.722 170.982 123.086 170.885 123.403 170.872C123.778 170.883 124.144 170.999 124.464 171.208C124.785 171.417 125.049 171.712 125.229 172.063C125.583 172.771 125.796 173.549 125.856 174.349C125.937 174.784 125.929 175.232 125.832 175.663C125.78 175.878 125.671 176.071 125.517 176.219C125.363 176.368 125.171 176.464 124.966 176.497C121.199 176.758 117.481 175.792 113.813 174.838C112.736 174.557 111.64 174.229 110.741 173.535C109.925 172.904 109.324 172.011 108.739 171.135C107.659 169.519 106.573 167.891 105.8 166.086C104.806 163.762 104.362 161.22 103.928 158.708C103.778 158.034 103.725 157.34 103.77 156.649C103.9 155.841 104.189 155.072 104.618 154.392C105.136 153.491 105.71 152.627 106.334 151.806C107.284 150.507 108.647 149.627 110.165 149.334Z" fill="black"/>
<path d="M110.413 149.069C111.847 148.851 113.308 148.977 114.691 149.436C115.152 149.549 115.569 149.813 115.883 150.192C116.061 150.479 116.177 150.805 116.223 151.146C116.505 152.715 116.324 154.339 115.705 155.793C115.661 155.866 115.632 155.948 115.619 156.033C115.607 156.119 115.612 156.206 115.633 156.29C115.696 156.391 115.777 156.477 115.872 156.543C115.959 156.631 116.026 156.738 116.071 156.857C116.115 156.976 116.136 157.103 116.131 157.23C116.126 157.358 116.096 157.483 116.043 157.598C115.989 157.712 115.914 157.813 115.821 157.893C115.707 157.983 115.557 158.06 115.534 158.21C115.51 158.373 115.653 158.501 115.765 158.615C115.928 158.786 116.049 158.998 116.115 159.232C116.182 159.466 116.192 159.714 116.145 159.954C116.085 160.146 116.044 160.345 116.022 160.547C116.045 160.794 116.113 161.033 116.222 161.252C116.409 161.746 116.473 162.283 116.407 162.811C116.348 163.061 116.342 163.321 116.39 163.574C116.458 163.741 116.549 163.895 116.662 164.032C117.103 164.668 117.2 165.732 116.56 166.131C116.833 166.281 117.057 166.519 117.198 166.811C117.339 167.103 117.392 167.435 117.348 167.761C117.73 167.543 118.194 167.822 118.512 168.136C118.831 168.45 119.156 168.834 119.589 168.857C119.89 168.873 120.208 168.706 120.484 168.839C120.902 169.041 120.888 169.766 121.3 169.983C121.661 170.174 122.164 169.863 122.471 170.141C122.578 170.237 122.633 170.387 122.736 170.488C122.97 170.717 123.335 170.62 123.651 170.606C124.026 170.617 124.392 170.733 124.713 170.942C125.033 171.152 125.297 171.446 125.478 171.798C125.831 172.506 126.044 173.284 126.104 174.084C126.185 174.519 126.177 174.967 126.081 175.398C126.029 175.612 125.919 175.806 125.765 175.954C125.611 176.102 125.42 176.199 125.215 176.232C121.447 176.492 117.73 175.527 114.061 174.572C112.984 174.292 111.888 173.964 110.99 173.269C110.173 172.638 109.573 171.746 108.987 170.87C107.908 169.254 106.821 167.626 106.049 165.82C105.054 163.497 104.611 160.955 104.176 158.442C104.026 157.769 103.973 157.075 104.018 156.384C104.149 155.576 104.438 154.807 104.866 154.127C105.385 153.226 105.958 152.362 106.583 151.541C107.532 150.242 108.896 149.362 110.413 149.069Z" fill="#A04FC6"/>
</g>
<defs>
<clipPath id="clip0">
<rect width="330" height="223" fill="white"/>
</clipPath>
</defs>
</svg>
