<svg width="70" height="70" viewBox="0 0 70 70" fill="none" xmlns="http://www.w3.org/2000/svg">
<circle cx="35" cy="35" r="35" fill="white"/>
<path d="M11.248 41.07C10.9027 41.07 10.6553 40.9953 10.506 40.846C10.3567 40.6873 10.282 40.3933 10.282 39.964C10.282 39.6747 10.31 39.306 10.366 38.858C10.4313 38.4007 10.534 37.7753 10.674 36.982C10.9167 35.5167 11.108 34.2473 11.248 33.174C11.332 32.502 11.374 31.942 11.374 31.494C11.374 31.074 11.22 30.864 10.912 30.864C10.6693 30.864 10.3753 30.99 10.03 31.242C9.694 31.4847 9.32067 31.8767 8.91 32.418C8.77933 32.5953 8.63467 32.684 8.476 32.684C8.34533 32.684 8.22867 32.6233 8.126 32.502C8.03267 32.3713 7.986 32.2267 7.986 32.068C7.986 31.9187 8.014 31.7693 8.07 31.62C8.13533 31.4613 8.238 31.284 8.378 31.088C8.826 30.4627 9.32533 29.982 9.876 29.646C10.4267 29.3007 10.9773 29.128 11.528 29.128C12.0413 29.128 12.4333 29.2913 12.704 29.618C12.984 29.9447 13.124 30.4207 13.124 31.046C13.124 31.298 13.1007 31.5967 13.054 31.942C13.0073 32.278 12.9653 32.5533 12.928 32.768C12.8907 32.9827 12.8627 33.132 12.844 33.216C13.376 31.6947 13.9733 30.6353 14.636 30.038C15.2987 29.4313 16.0267 29.128 16.82 29.128C17.4267 29.128 17.9027 29.3427 18.248 29.772C18.6027 30.2013 18.78 30.808 18.78 31.592C18.78 31.9 18.738 32.2827 18.654 32.74C19.1207 31.452 19.6667 30.528 20.292 29.968C20.9173 29.408 21.636 29.128 22.448 29.128C23.1013 29.128 23.6007 29.338 23.946 29.758C24.3007 30.178 24.478 30.766 24.478 31.522C24.478 31.9327 24.4173 32.432 24.296 33.02L23.442 37.024C23.3487 37.4907 23.302 37.892 23.302 38.228C23.302 38.62 23.3907 38.914 23.568 39.11C23.7547 39.306 24.0113 39.404 24.338 39.404C24.646 39.404 24.9447 39.3013 25.234 39.096C25.5327 38.8907 25.8827 38.55 26.284 38.074C26.396 37.9433 26.522 37.878 26.662 37.878C26.7833 37.878 26.8767 37.934 26.942 38.046C27.0167 38.158 27.054 38.312 27.054 38.508C27.054 38.872 26.9653 39.1613 26.788 39.376C26.3027 39.964 25.822 40.3933 25.346 40.664C24.87 40.9347 24.3707 41.07 23.848 41.07C23.0547 41.07 22.434 40.8367 21.986 40.37C21.538 39.894 21.314 39.2593 21.314 38.466C21.314 37.9153 21.426 37.1173 21.65 36.072L22.21 33.51C22.2287 33.426 22.2613 33.2767 22.308 33.062C22.3547 32.8473 22.392 32.6467 22.42 32.46C22.448 32.264 22.462 32.0727 22.462 31.886C22.462 31.5593 22.3967 31.3167 22.266 31.158C22.1447 30.99 21.9673 30.906 21.734 30.906C21.2953 30.906 20.8333 31.1907 20.348 31.76C19.872 32.32 19.4147 33.2533 18.976 34.56C18.5467 35.8667 18.1967 37.5653 17.926 39.656C17.8607 40.216 17.744 40.594 17.576 40.79C17.4173 40.9767 17.156 41.07 16.792 41.07C16.4747 41.07 16.2413 40.9953 16.092 40.846C15.952 40.6967 15.882 40.4167 15.882 40.006C15.882 39.6233 15.9333 39.124 16.036 38.508C16.1387 37.8827 16.2693 37.15 16.428 36.31C16.8573 34.0513 17.072 32.5953 17.072 31.942C17.072 31.5873 17.002 31.326 16.862 31.158C16.7313 30.99 16.5307 30.906 16.26 30.906C15.8027 30.906 15.3313 31.1673 14.846 31.69C14.3607 32.2033 13.8847 33.1227 13.418 34.448C12.9607 35.764 12.578 37.5467 12.27 39.796C12.2047 40.272 12.1067 40.6033 11.976 40.79C11.8547 40.9767 11.612 41.07 11.248 41.07ZM27.6479 41.07C27.0692 41.07 26.6072 40.86 26.2619 40.44C25.9166 40.02 25.7439 39.4693 25.7439 38.788C25.7439 38.0413 25.9166 37.3367 26.2619 36.674C26.6072 36.002 27.0646 35.4653 27.6339 35.064C28.2126 34.6533 28.8239 34.448 29.4679 34.448C29.6732 34.448 29.8086 34.49 29.8739 34.574C29.9486 34.6487 30.0092 34.7887 30.0559 34.994C30.2519 34.9567 30.4572 34.938 30.6719 34.938C31.1292 34.938 31.3579 35.1013 31.3579 35.428C31.3579 35.624 31.2879 36.0907 31.1479 36.828C30.9332 37.9013 30.8259 38.648 30.8259 39.068C30.8259 39.208 30.8586 39.32 30.9239 39.404C30.9986 39.488 31.0919 39.53 31.2039 39.53C31.3812 39.53 31.5959 39.418 31.8479 39.194C32.0999 38.9607 32.4406 38.5873 32.8699 38.074C32.9819 37.9433 33.1079 37.878 33.2479 37.878C33.3692 37.878 33.4626 37.934 33.5279 38.046C33.6026 38.158 33.6399 38.312 33.6399 38.508C33.6399 38.8813 33.5512 39.1707 33.3739 39.376C32.9912 39.852 32.5852 40.2533 32.1559 40.58C31.7266 40.9067 31.3112 41.07 30.9099 41.07C30.6019 41.07 30.3172 40.9673 30.0559 40.762C29.8039 40.5473 29.6126 40.258 29.4819 39.894C28.9966 40.678 28.3852 41.07 27.6479 41.07ZM28.1519 39.656C28.3572 39.656 28.5532 39.5347 28.7399 39.292C28.9266 39.0493 29.0619 38.7273 29.1459 38.326L29.6639 35.75C29.2719 35.7593 28.9079 35.9087 28.5719 36.198C28.2452 36.478 27.9839 36.8513 27.7879 37.318C27.5919 37.7847 27.4939 38.2793 27.4939 38.802C27.4939 39.0913 27.5499 39.306 27.6619 39.446C27.7832 39.586 27.9466 39.656 28.1519 39.656ZM33.4961 41.07C33.1414 41.07 32.8894 40.8833 32.7401 40.51C32.6001 40.1367 32.5301 39.5393 32.5301 38.718C32.5301 37.5047 32.7027 36.352 33.0481 35.26C33.1321 34.9893 33.2674 34.7933 33.4541 34.672C33.6501 34.5413 33.9207 34.476 34.2661 34.476C34.4527 34.476 34.5834 34.4993 34.6581 34.546C34.7327 34.5927 34.7701 34.6813 34.7701 34.812C34.7701 34.9613 34.7001 35.2973 34.5601 35.82C34.4667 36.1933 34.3921 36.52 34.3361 36.8C34.2801 37.08 34.2334 37.4253 34.1961 37.836C34.5041 37.0333 34.8494 36.38 35.2321 35.876C35.6147 35.372 35.9881 35.0127 36.3521 34.798C36.7254 34.5833 37.0661 34.476 37.3741 34.476C37.9807 34.476 38.2841 34.7793 38.2841 35.386C38.2841 35.5073 38.2421 35.8013 38.1581 36.268C38.0834 36.6413 38.0461 36.8747 38.0461 36.968C38.0461 37.2947 38.1627 37.458 38.3961 37.458C38.6574 37.458 38.9934 37.2527 39.4041 36.842C39.5254 36.7207 39.6514 36.66 39.7821 36.66C39.9034 36.66 39.9967 36.716 40.0621 36.828C40.1367 36.9307 40.1741 37.0707 40.1741 37.248C40.1741 37.5933 40.0807 37.864 39.8941 38.06C39.6327 38.3307 39.3247 38.564 38.9701 38.76C38.6247 38.9467 38.2561 39.04 37.8641 39.04C37.3694 39.04 36.9914 38.914 36.7301 38.662C36.4781 38.41 36.3521 38.0693 36.3521 37.64C36.3521 37.5 36.3661 37.36 36.3941 37.22C36.4127 37.0333 36.4221 36.9073 36.4221 36.842C36.4221 36.6927 36.3707 36.618 36.2681 36.618C36.1281 36.618 35.9414 36.7767 35.7081 37.094C35.4841 37.402 35.2601 37.8127 35.0361 38.326C34.8121 38.8393 34.6301 39.3807 34.4901 39.95C34.3874 40.3887 34.2661 40.6873 34.1261 40.846C33.9954 40.9953 33.7854 41.07 33.4961 41.07ZM46.0412 37.906C46.1625 37.906 46.2558 37.9667 46.3212 38.088C46.3958 38.2 46.4332 38.3447 46.4332 38.522C46.4332 38.7367 46.4005 38.9047 46.3352 39.026C46.2698 39.1473 46.1672 39.2547 46.0272 39.348L43.3392 41.154C42.9845 43.086 42.5178 44.6027 41.9392 45.704C41.3698 46.8147 40.6418 47.37 39.7552 47.37C39.2792 47.37 38.8918 47.2207 38.5932 46.922C38.2945 46.6327 38.1452 46.25 38.1452 45.774C38.1452 45.3353 38.2432 44.8873 38.4392 44.43C38.6445 43.9727 39.0178 43.4453 39.5592 42.848C40.1098 42.26 40.8845 41.5833 41.8832 40.818L41.9252 40.496C41.9905 40.1507 42.0652 39.656 42.1492 39.012C41.9625 39.684 41.7012 40.1973 41.3652 40.552C41.0292 40.8973 40.6745 41.07 40.3012 41.07C39.8812 41.07 39.5358 40.8787 39.2652 40.496C39.0038 40.104 38.8732 39.6187 38.8732 39.04C38.8732 38.34 38.9198 37.7007 39.0132 37.122C39.1065 36.534 39.2605 35.9133 39.4752 35.26C39.5685 34.98 39.6992 34.7793 39.8672 34.658C40.0352 34.5367 40.3012 34.476 40.6652 34.476C40.8705 34.476 41.0105 34.5087 41.0852 34.574C41.1692 34.6393 41.2112 34.7373 41.2112 34.868C41.2112 34.9427 41.1598 35.1947 41.0572 35.624C40.9638 35.9693 40.8892 36.282 40.8332 36.562C40.7585 36.9447 40.6932 37.3133 40.6372 37.668C40.5812 38.0133 40.5532 38.298 40.5532 38.522C40.5532 38.8767 40.6512 39.054 40.8472 39.054C40.9872 39.054 41.1598 38.914 41.3652 38.634C41.5798 38.354 41.8038 37.9293 42.0372 37.36C42.2798 36.7907 42.5132 36.0907 42.7372 35.26C42.8118 34.98 42.9238 34.7793 43.0732 34.658C43.2318 34.5367 43.4652 34.476 43.7732 34.476C43.9878 34.476 44.1372 34.504 44.2212 34.56C44.3052 34.616 44.3472 34.7093 44.3472 34.84C44.3472 35.0733 44.2258 35.876 43.9832 37.248L43.6192 39.502C44.3378 38.9607 45.0378 38.466 45.7192 38.018C45.8405 37.9433 45.9478 37.906 46.0412 37.906ZM39.9092 46.012C40.1425 46.012 40.4038 45.7413 40.6932 45.2C40.9825 44.6587 41.2718 43.758 41.5612 42.498C40.8425 43.1047 40.3198 43.6553 39.9932 44.15C39.6758 44.654 39.5172 45.0927 39.5172 45.466C39.5172 45.6247 39.5452 45.7553 39.6012 45.858C39.6665 45.9607 39.7692 46.012 39.9092 46.012ZM55.1764 37.878C55.2977 37.878 55.3911 37.934 55.4564 38.046C55.5311 38.158 55.5684 38.312 55.5684 38.508C55.5684 38.8813 55.4797 39.1707 55.3024 39.376C54.9197 39.8427 54.4951 40.244 54.0284 40.58C53.5711 40.9067 53.1091 41.07 52.6424 41.07C52.0357 41.07 51.5924 40.8553 51.3124 40.426C51.0417 39.9967 50.9064 39.4273 50.9064 38.718C50.9064 38.354 50.9437 37.906 51.0184 37.374C51.1024 36.842 51.2097 36.3193 51.3404 35.806C50.4071 35.806 49.3011 35.848 48.0224 35.932C47.8171 37.2387 47.7144 38.4567 47.7144 39.586C47.7144 40.454 47.7611 41.3593 47.8544 42.302C47.9571 43.254 48.1064 43.73 48.3024 43.73C48.3957 43.73 48.4937 43.5667 48.5964 43.24C48.6991 42.9133 48.7831 42.4653 48.8484 41.896C48.9137 41.3267 48.9464 40.6967 48.9464 40.006C48.9464 39.25 48.9044 38.4333 48.8204 37.556C48.8017 37.2947 48.8437 37.1033 48.9464 36.982C49.0584 36.8513 49.2217 36.786 49.4364 36.786C49.6324 36.786 49.7771 36.8373 49.8704 36.94C49.9637 37.0427 50.0197 37.2153 50.0384 37.458C50.0851 38.1393 50.1084 38.9513 50.1084 39.894C50.1084 41.4153 49.9217 42.7173 49.5484 43.8C49.1844 44.8827 48.6151 45.424 47.8404 45.424C47.1777 45.424 46.7017 44.9433 46.4124 43.982C46.1231 43.03 45.9784 41.5973 45.9784 39.684C45.9784 38.5547 46.0671 37.346 46.2444 36.058C46.1791 36.0673 46.0951 36.072 45.9924 36.072C45.7031 36.072 45.5071 36.0207 45.4044 35.918C45.3111 35.8153 45.2644 35.6567 45.2644 35.442C45.2644 35.2087 45.3251 35.022 45.4464 34.882C45.5771 34.742 45.8197 34.658 46.1744 34.63C46.2397 34.6207 46.3424 34.616 46.4824 34.616C46.7344 33.356 47.0564 32.2127 47.4484 31.186C47.8404 30.1593 48.2884 29.3473 48.7924 28.75C49.2964 28.1433 49.8284 27.84 50.3884 27.84C50.8271 27.84 51.1631 28.0127 51.3964 28.358C51.6391 28.694 51.7604 29.128 51.7604 29.66C51.7604 31.536 51.0044 33.132 49.4924 34.448C50.6311 34.4013 51.5504 34.378 52.2504 34.378C52.5117 34.378 52.7264 34.4293 52.8944 34.532C53.0624 34.6253 53.1464 34.812 53.1464 35.092C53.1464 35.2787 53.1137 35.5633 53.0484 35.946C52.9924 36.3287 52.9271 36.7113 52.8524 37.094C52.6844 37.8873 52.6004 38.41 52.6004 38.662C52.6004 38.942 52.6377 39.1567 52.7124 39.306C52.7871 39.4553 52.9131 39.53 53.0904 39.53C53.2491 39.53 53.4497 39.4227 53.6924 39.208C53.9444 38.984 54.3131 38.606 54.7984 38.074C54.9104 37.9433 55.0364 37.878 55.1764 37.878ZM50.1224 29.184C49.8984 29.184 49.6137 29.6693 49.2684 30.64C48.9231 31.6107 48.6104 32.7867 48.3304 34.168C48.7971 33.8413 49.1844 33.4353 49.4924 32.95C49.8097 32.4647 50.0431 31.9653 50.1924 31.452C50.3511 30.9293 50.4304 30.4487 50.4304 30.01C50.4304 29.4593 50.3277 29.184 50.1224 29.184ZM52.8384 33.552C52.4464 33.552 52.1524 33.4633 51.9564 33.286C51.7604 33.0993 51.6624 32.8427 51.6624 32.516C51.6624 32.1893 51.7884 31.9187 52.0404 31.704C52.3017 31.48 52.6237 31.368 53.0064 31.368C53.3517 31.368 53.6317 31.452 53.8464 31.62C54.0611 31.788 54.1684 32.026 54.1684 32.334C54.1684 32.7073 54.0471 33.006 53.8044 33.23C53.5617 33.4447 53.2397 33.552 52.8384 33.552ZM59.881 37.08C60.1424 37.08 60.273 37.276 60.273 37.668C60.273 38.4053 59.6944 38.774 58.537 38.774C58.313 38.774 57.991 38.732 57.571 38.648C57.6924 39.2267 57.7904 39.8707 57.865 40.58C57.949 41.28 57.991 41.8587 57.991 42.316C57.991 43.324 57.8277 44.094 57.501 44.626C57.1744 45.158 56.745 45.424 56.213 45.424C55.541 45.424 55.0604 44.948 54.771 43.996C54.491 43.044 54.351 41.6067 54.351 39.684C54.351 37.892 54.5424 36.0767 54.925 34.238C55.317 32.39 55.849 30.864 56.521 29.66C57.2024 28.4467 57.949 27.84 58.761 27.84C59.1997 27.84 59.5404 28.036 59.783 28.428C60.035 28.82 60.161 29.3473 60.161 30.01C60.161 32.2033 58.8497 34.5927 56.227 37.178C56.1337 38.0927 56.087 38.8953 56.087 39.586C56.087 40.5473 56.1197 41.532 56.185 42.54C56.2504 43.5573 56.3577 44.066 56.507 44.066C56.787 44.066 56.927 43.5807 56.927 42.61C56.927 41.882 56.8757 41.1773 56.773 40.496C56.6797 39.8147 56.549 39.096 56.381 38.34C56.3717 38.2187 56.409 38.0647 56.493 37.878C56.5864 37.6913 56.6984 37.528 56.829 37.388C56.9597 37.248 57.0764 37.178 57.179 37.178C57.3657 37.178 57.5897 37.1873 57.851 37.206C57.935 37.2153 58.033 37.22 58.145 37.22C58.5184 37.22 58.9337 37.1873 59.391 37.122C59.4657 37.1127 59.545 37.1033 59.629 37.094C59.713 37.0847 59.797 37.08 59.881 37.08ZM58.467 29.226C58.299 29.226 58.089 29.5107 57.837 30.08C57.5944 30.6493 57.3517 31.4053 57.109 32.348C56.8664 33.2813 56.6564 34.2707 56.479 35.316C57.2257 34.4667 57.7997 33.5847 58.201 32.67C58.6024 31.746 58.8077 30.8827 58.817 30.08C58.817 29.5107 58.7004 29.226 58.467 29.226ZM61.1489 33.552C60.7569 33.552 60.4629 33.4633 60.2669 33.286C60.0709 33.0993 59.9729 32.8427 59.9729 32.516C59.9729 32.1893 60.0989 31.9187 60.3509 31.704C60.6123 31.48 60.9343 31.368 61.3169 31.368C61.6623 31.368 61.9423 31.452 62.1569 31.62C62.3716 31.788 62.4789 32.026 62.4789 32.334C62.4789 32.7073 62.3576 33.006 62.1149 33.23C61.8723 33.4447 61.5503 33.552 61.1489 33.552ZM59.8049 41.07C59.5063 41.07 59.3009 41.0093 59.1889 40.888C59.0769 40.7667 59.0209 40.5753 59.0209 40.314C59.0209 40.2393 59.0303 40.1087 59.0489 39.922C59.1983 38.214 59.4456 36.66 59.7909 35.26C59.8656 34.9707 59.9869 34.77 60.1549 34.658C60.3323 34.5367 60.6123 34.476 60.9949 34.476C61.3963 34.476 61.5969 34.6393 61.5969 34.966C61.5969 35.0127 61.5876 35.1013 61.5689 35.232C61.1489 37.2293 60.8969 38.9047 60.8129 40.258C60.7943 40.5567 60.7056 40.7667 60.5469 40.888C60.3883 41.0093 60.1409 41.07 59.8049 41.07Z" fill="#2A2235"/>
</svg>
