<svg width="75" height="27" viewBox="0 0 75 27" fill="none" xmlns="http://www.w3.org/2000/svg">
<path d="M5.408 18.095C4.93933 18.095 4.60367 17.9937 4.401 17.791C4.19833 17.5757 4.097 17.1767 4.097 16.594C4.097 16.2013 4.135 15.701 4.211 15.093C4.29967 14.4723 4.439 13.6237 4.629 12.547C4.95833 10.5583 5.218 8.83567 5.408 7.379C5.522 6.467 5.579 5.707 5.579 5.099C5.579 4.529 5.37 4.244 4.952 4.244C4.62267 4.244 4.22367 4.415 3.755 4.757C3.299 5.08633 2.79233 5.61833 2.235 6.353C2.05767 6.59367 1.86133 6.714 1.646 6.714C1.46867 6.714 1.31033 6.63167 1.171 6.467C1.04433 6.28967 0.981 6.09333 0.981 5.878C0.981 5.67533 1.019 5.47267 1.095 5.27C1.18367 5.05467 1.323 4.814 1.513 4.548C2.121 3.69933 2.79867 3.047 3.546 2.591C4.29333 2.12233 5.04067 1.888 5.788 1.888C6.48467 1.888 7.01667 2.10967 7.384 2.553C7.764 2.99633 7.954 3.64233 7.954 4.491C7.954 4.833 7.92233 5.23833 7.859 5.707C7.79567 6.163 7.73867 6.53667 7.688 6.828C7.63733 7.11933 7.59933 7.322 7.574 7.436C8.296 5.37133 9.10667 3.93367 10.006 3.123C10.9053 2.29967 11.8933 1.888 12.97 1.888C13.7933 1.888 14.4393 2.17933 14.908 2.762C15.3893 3.34467 15.63 4.168 15.63 5.232C15.63 5.65 15.573 6.16933 15.459 6.79C16.0923 5.042 16.8333 3.788 17.682 3.028C18.5307 2.268 19.506 1.888 20.608 1.888C21.4947 1.888 22.1723 2.173 22.641 2.743C23.1223 3.313 23.363 4.111 23.363 5.137C23.363 5.69433 23.2807 6.372 23.116 7.17L21.957 12.604C21.8303 13.2373 21.767 13.782 21.767 14.238C21.767 14.77 21.8873 15.169 22.128 15.435C22.3813 15.701 22.7297 15.834 23.173 15.834C23.591 15.834 23.9963 15.6947 24.389 15.416C24.7943 15.1373 25.2693 14.675 25.814 14.029C25.966 13.8517 26.137 13.763 26.327 13.763C26.4917 13.763 26.6183 13.839 26.707 13.991C26.8083 14.143 26.859 14.352 26.859 14.618C26.859 15.112 26.7387 15.5047 26.498 15.796C25.8393 16.594 25.187 17.1767 24.541 17.544C23.895 17.9113 23.2173 18.095 22.508 18.095C21.4313 18.095 20.589 17.7783 19.981 17.145C19.373 16.499 19.069 15.6377 19.069 14.561C19.069 13.8137 19.221 12.7307 19.525 11.312L20.285 7.835C20.3103 7.721 20.3547 7.51833 20.418 7.227C20.4813 6.93567 20.532 6.66333 20.57 6.41C20.608 6.144 20.627 5.88433 20.627 5.631C20.627 5.18767 20.5383 4.85833 20.361 4.643C20.1963 4.415 19.9557 4.301 19.639 4.301C19.0437 4.301 18.4167 4.68733 17.758 5.46C17.112 6.22 16.4913 7.48667 15.896 9.26C15.3133 11.0333 14.8383 13.3387 14.471 16.176C14.3823 16.936 14.224 17.449 13.996 17.715C13.7807 17.9683 13.426 18.095 12.932 18.095C12.5013 18.095 12.1847 17.9937 11.982 17.791C11.792 17.5883 11.697 17.2083 11.697 16.651C11.697 16.1317 11.7667 15.454 11.906 14.618C12.0453 13.7693 12.2227 12.775 12.438 11.635C13.0207 8.56967 13.312 6.59367 13.312 5.707C13.312 5.22567 13.217 4.871 13.027 4.643C12.8497 4.415 12.5773 4.301 12.21 4.301C11.5893 4.301 10.9497 4.65567 10.291 5.365C9.63233 6.06167 8.98633 7.30933 8.353 9.108C7.73233 10.894 7.213 13.3133 6.795 16.366C6.70633 17.012 6.57333 17.4617 6.396 17.715C6.23133 17.9683 5.902 18.095 5.408 18.095ZM27.665 18.095C26.8797 18.095 26.2527 17.81 25.784 17.24C25.3153 16.67 25.081 15.9227 25.081 14.998C25.081 13.9847 25.3153 13.0283 25.784 12.129C26.2527 11.217 26.8733 10.4887 27.646 9.944C28.4313 9.38667 29.261 9.108 30.135 9.108C30.4137 9.108 30.5973 9.165 30.686 9.279C30.7873 9.38033 30.8697 9.57033 30.933 9.849C31.199 9.79833 31.4777 9.773 31.769 9.773C32.3897 9.773 32.7 9.99467 32.7 10.438C32.7 10.704 32.605 11.3373 32.415 12.338C32.1237 13.7947 31.978 14.808 31.978 15.378C31.978 15.568 32.0223 15.72 32.111 15.834C32.2123 15.948 32.339 16.005 32.491 16.005C32.7317 16.005 33.023 15.853 33.365 15.549C33.707 15.2323 34.1693 14.7257 34.752 14.029C34.904 13.8517 35.075 13.763 35.265 13.763C35.4297 13.763 35.5563 13.839 35.645 13.991C35.7463 14.143 35.797 14.352 35.797 14.618C35.797 15.1247 35.6767 15.5173 35.436 15.796C34.9167 16.442 34.3657 16.9867 33.783 17.43C33.2003 17.8733 32.6367 18.095 32.092 18.095C31.674 18.095 31.2877 17.9557 30.933 17.677C30.591 17.3857 30.3313 16.993 30.154 16.499C29.4953 17.563 28.6657 18.095 27.665 18.095ZM28.349 16.176C28.6277 16.176 28.8937 16.0113 29.147 15.682C29.4003 15.3527 29.584 14.9157 29.698 14.371L30.401 10.875C29.869 10.8877 29.375 11.0903 28.919 11.483C28.4757 11.863 28.121 12.3697 27.855 13.003C27.589 13.6363 27.456 14.3077 27.456 15.017C27.456 15.4097 27.532 15.701 27.684 15.891C27.8487 16.081 28.0703 16.176 28.349 16.176ZM35.6018 18.095C35.1205 18.095 34.7785 17.8417 34.5758 17.335C34.3858 16.8283 34.2908 16.0177 34.2908 14.903C34.2908 13.2563 34.5252 11.692 34.9938 10.21C35.1078 9.84267 35.2915 9.57667 35.5448 9.412C35.8108 9.23467 36.1782 9.146 36.6468 9.146C36.9002 9.146 37.0775 9.17767 37.1788 9.241C37.2802 9.30433 37.3308 9.42467 37.3308 9.602C37.3308 9.80467 37.2358 10.2607 37.0458 10.97C36.9192 11.4767 36.8178 11.92 36.7418 12.3C36.6658 12.68 36.6025 13.1487 36.5518 13.706C36.9698 12.6167 37.4385 11.73 37.9578 11.046C38.4772 10.362 38.9838 9.87433 39.4778 9.583C39.9845 9.29167 40.4468 9.146 40.8648 9.146C41.6882 9.146 42.0998 9.55767 42.0998 10.381C42.0998 10.5457 42.0428 10.9447 41.9288 11.578C41.8275 12.0847 41.7768 12.4013 41.7768 12.528C41.7768 12.9713 41.9352 13.193 42.2518 13.193C42.6065 13.193 43.0625 12.9143 43.6198 12.357C43.7845 12.1923 43.9555 12.11 44.1328 12.11C44.2975 12.11 44.4242 12.186 44.5128 12.338C44.6142 12.4773 44.6648 12.6673 44.6648 12.908C44.6648 13.3767 44.5382 13.744 44.2848 14.01C43.9302 14.3773 43.5122 14.694 43.0308 14.96C42.5622 15.2133 42.0618 15.34 41.5298 15.34C40.8585 15.34 40.3455 15.169 39.9908 14.827C39.6488 14.485 39.4778 14.0227 39.4778 13.44C39.4778 13.25 39.4968 13.06 39.5348 12.87C39.5602 12.6167 39.5728 12.4457 39.5728 12.357C39.5728 12.1543 39.5032 12.053 39.3638 12.053C39.1738 12.053 38.9205 12.2683 38.6038 12.699C38.2998 13.117 37.9958 13.6743 37.6918 14.371C37.3878 15.0677 37.1408 15.8023 36.9508 16.575C36.8115 17.1703 36.6468 17.5757 36.4568 17.791C36.2795 17.9937 35.9945 18.095 35.6018 18.095ZM52.6273 13.801C52.792 13.801 52.9186 13.8833 53.0073 14.048C53.1086 14.2 53.1593 14.3963 53.1593 14.637C53.1593 14.9283 53.115 15.1563 53.0263 15.321C52.9376 15.4857 52.7983 15.6313 52.6083 15.758L48.9603 18.209C48.479 20.831 47.8456 22.8893 47.0603 24.384C46.2876 25.8913 45.2996 26.645 44.0963 26.645C43.4503 26.645 42.9246 26.4423 42.5193 26.037C42.114 25.6443 41.9113 25.125 41.9113 24.479C41.9113 23.8837 42.0443 23.2757 42.3103 22.655C42.589 22.0343 43.0956 21.3187 43.8303 20.508C44.5776 19.71 45.629 18.7917 46.9843 17.753L47.0413 17.316C47.13 16.8473 47.2313 16.176 47.3453 15.302C47.092 16.214 46.7373 16.9107 46.2813 17.392C45.8253 17.8607 45.344 18.095 44.8373 18.095C44.2673 18.095 43.7986 17.8353 43.4313 17.316C43.0766 16.784 42.8993 16.1253 42.8993 15.34C42.8993 14.39 42.9626 13.5223 43.0893 12.737C43.216 11.939 43.425 11.0967 43.7163 10.21C43.843 9.83 44.0203 9.55767 44.2483 9.393C44.4763 9.22833 44.8373 9.146 45.3313 9.146C45.61 9.146 45.8 9.19033 45.9013 9.279C46.0153 9.36767 46.0723 9.50067 46.0723 9.678C46.0723 9.77933 46.0026 10.1213 45.8633 10.704C45.7366 11.1727 45.6353 11.597 45.5593 11.977C45.458 12.4963 45.3693 12.9967 45.2933 13.478C45.2173 13.9467 45.1793 14.333 45.1793 14.637C45.1793 15.1183 45.3123 15.359 45.5783 15.359C45.7683 15.359 46.0026 15.169 46.2813 14.789C46.5726 14.409 46.8766 13.8327 47.1933 13.06C47.5226 12.2873 47.8393 11.3373 48.1433 10.21C48.2446 9.83 48.3966 9.55767 48.5993 9.393C48.8146 9.22833 49.1313 9.146 49.5493 9.146C49.8406 9.146 50.0433 9.184 50.1573 9.26C50.2713 9.336 50.3283 9.46267 50.3283 9.64C50.3283 9.95667 50.1636 11.046 49.8343 12.908L49.3403 15.967C50.3156 15.2323 51.2656 14.561 52.1903 13.953C52.355 13.8517 52.5006 13.801 52.6273 13.801ZM44.3053 24.802C44.622 24.802 44.9766 24.4347 45.3693 23.7C45.762 22.9653 46.1546 21.743 46.5473 20.033C45.572 20.8563 44.8626 21.6037 44.4193 22.275C43.9886 22.959 43.7733 23.5543 43.7733 24.061C43.7733 24.2763 43.8113 24.4537 43.8873 24.593C43.976 24.7323 44.1153 24.802 44.3053 24.802ZM65.0251 13.763C65.1898 13.763 65.3164 13.839 65.4051 13.991C65.5064 14.143 65.5571 14.352 65.5571 14.618C65.5571 15.1247 65.4368 15.5173 65.1961 15.796C64.6768 16.4293 64.1004 16.974 63.4671 17.43C62.8464 17.8733 62.2194 18.095 61.5861 18.095C60.7628 18.095 60.1611 17.8037 59.7811 17.221C59.4138 16.6383 59.2301 15.8657 59.2301 14.903C59.2301 14.409 59.2808 13.801 59.3821 13.079C59.4961 12.357 59.6418 11.6477 59.8191 10.951C58.5524 10.951 57.0514 11.008 55.3161 11.122C55.0374 12.8953 54.8981 14.5483 54.8981 16.081C54.8981 17.259 54.9614 18.4877 55.0881 19.767C55.2274 21.059 55.4301 21.705 55.6961 21.705C55.8228 21.705 55.9558 21.4833 56.0951 21.04C56.2344 20.5967 56.3484 19.9887 56.4371 19.216C56.5258 18.4433 56.5701 17.5883 56.5701 16.651C56.5701 15.625 56.5131 14.5167 56.3991 13.326C56.3738 12.9713 56.4308 12.7117 56.5701 12.547C56.7221 12.3697 56.9438 12.281 57.2351 12.281C57.5011 12.281 57.6974 12.3507 57.8241 12.49C57.9508 12.6293 58.0268 12.8637 58.0521 13.193C58.1154 14.1177 58.1471 15.2197 58.1471 16.499C58.1471 18.5637 57.8938 20.3307 57.3871 21.8C56.8931 23.2693 56.1204 24.004 55.0691 24.004C54.1698 24.004 53.5238 23.3517 53.1311 22.047C52.7384 20.755 52.5421 18.8107 52.5421 16.214C52.5421 14.6813 52.6624 13.041 52.9031 11.293C52.8144 11.3057 52.7004 11.312 52.5611 11.312C52.1684 11.312 51.9024 11.2423 51.7631 11.103C51.6364 10.9637 51.5731 10.7483 51.5731 10.457C51.5731 10.1403 51.6554 9.887 51.8201 9.697C51.9974 9.507 52.3268 9.393 52.8081 9.355C52.8968 9.34233 53.0361 9.336 53.2261 9.336C53.5681 7.626 54.0051 6.07433 54.5371 4.681C55.0691 3.28767 55.6771 2.18567 56.3611 1.375C57.0451 0.551666 57.7671 0.139999 58.5271 0.139999C59.1224 0.139999 59.5784 0.374332 59.8951 0.842999C60.2244 1.299 60.3891 1.888 60.3891 2.61C60.3891 5.156 59.3631 7.322 57.3111 9.108C58.8564 9.04467 60.1041 9.013 61.0541 9.013C61.4088 9.013 61.7001 9.08267 61.9281 9.222C62.1561 9.34867 62.2701 9.602 62.2701 9.982C62.2701 10.2353 62.2258 10.6217 62.1371 11.141C62.0611 11.6603 61.9724 12.1797 61.8711 12.699C61.6431 13.7757 61.5291 14.485 61.5291 14.827C61.5291 15.207 61.5798 15.4983 61.6811 15.701C61.7824 15.9037 61.9534 16.005 62.1941 16.005C62.4094 16.005 62.6818 15.8593 63.0111 15.568C63.3531 15.264 63.8534 14.751 64.5121 14.029C64.6641 13.8517 64.8351 13.763 65.0251 13.763ZM58.1661 1.964C57.8621 1.964 57.4758 2.62267 57.0071 3.94C56.5384 5.25733 56.1141 6.85333 55.7341 8.728C56.3674 8.28467 56.8931 7.73367 57.3111 7.075C57.7418 6.41633 58.0584 5.73867 58.2611 5.042C58.4764 4.33267 58.5841 3.68033 58.5841 3.085C58.5841 2.33767 58.4448 1.964 58.1661 1.964ZM61.8521 7.892C61.3201 7.892 60.9211 7.77167 60.6551 7.531C60.3891 7.27767 60.2561 6.92933 60.2561 6.486C60.2561 6.04267 60.4271 5.67533 60.7691 5.384C61.1238 5.08 61.5608 4.928 62.0801 4.928C62.5488 4.928 62.9288 5.042 63.2201 5.27C63.5114 5.498 63.6571 5.821 63.6571 6.239C63.6571 6.74567 63.4924 7.151 63.1631 7.455C62.8338 7.74633 62.3968 7.892 61.8521 7.892ZM71.41 12.68C71.7647 12.68 71.942 12.946 71.942 13.478C71.942 14.4787 71.1567 14.979 69.586 14.979C69.282 14.979 68.845 14.922 68.275 14.808C68.4397 15.5933 68.5727 16.4673 68.674 17.43C68.788 18.38 68.845 19.1653 68.845 19.786C68.845 21.154 68.6233 22.199 68.18 22.921C67.7367 23.643 67.154 24.004 66.432 24.004C65.52 24.004 64.8677 23.358 64.475 22.066C64.095 20.774 63.905 18.8233 63.905 16.214C63.905 13.782 64.1647 11.3183 64.684 8.823C65.216 6.315 65.938 4.244 66.85 2.61C67.7747 0.963332 68.788 0.139999 69.89 0.139999C70.4853 0.139999 70.9477 0.405999 71.277 0.937999C71.619 1.47 71.79 2.18567 71.79 3.085C71.79 6.06167 70.0103 9.30433 66.451 12.813C66.3243 14.0543 66.261 15.1437 66.261 16.081C66.261 17.3857 66.3053 18.722 66.394 20.09C66.4827 21.4707 66.6283 22.161 66.831 22.161C67.211 22.161 67.401 21.5023 67.401 20.185C67.401 19.197 67.3313 18.2407 67.192 17.316C67.0653 16.3913 66.888 15.416 66.66 14.39C66.6473 14.2253 66.698 14.0163 66.812 13.763C66.9387 13.5097 67.0907 13.288 67.268 13.098C67.4453 12.908 67.6037 12.813 67.743 12.813C67.9963 12.813 68.3003 12.8257 68.655 12.851C68.769 12.8637 68.902 12.87 69.054 12.87C69.5607 12.87 70.1243 12.8257 70.745 12.737C70.8463 12.7243 70.954 12.7117 71.068 12.699C71.182 12.6863 71.296 12.68 71.41 12.68ZM69.491 2.021C69.263 2.021 68.978 2.40733 68.636 3.18C68.3067 3.95267 67.9773 4.97867 67.648 6.258C67.3187 7.52467 67.0337 8.86733 66.793 10.286C67.8063 9.13333 68.5853 7.93633 69.13 6.695C69.6747 5.441 69.9533 4.26933 69.966 3.18C69.966 2.40733 69.8077 2.021 69.491 2.021ZM73.1307 7.892C72.5987 7.892 72.1997 7.77167 71.9337 7.531C71.6677 7.27767 71.5347 6.92933 71.5347 6.486C71.5347 6.04267 71.7057 5.67533 72.0477 5.384C72.4023 5.08 72.8393 4.928 73.3587 4.928C73.8273 4.928 74.2073 5.042 74.4987 5.27C74.79 5.498 74.9357 5.821 74.9357 6.239C74.9357 6.74567 74.771 7.151 74.4417 7.455C74.1123 7.74633 73.6753 7.892 73.1307 7.892ZM71.3067 18.095C70.9013 18.095 70.6227 18.0127 70.4707 17.848C70.3187 17.6833 70.2427 17.4237 70.2427 17.069C70.2427 16.9677 70.2553 16.7903 70.2807 16.537C70.4833 14.219 70.819 12.11 71.2877 10.21C71.389 9.81733 71.5537 9.545 71.7817 9.393C72.0223 9.22833 72.4023 9.146 72.9217 9.146C73.4663 9.146 73.7387 9.36767 73.7387 9.811C73.7387 9.87433 73.726 9.99467 73.7007 10.172C73.1307 12.8827 72.7887 15.1563 72.6747 16.993C72.6493 17.3983 72.529 17.6833 72.3137 17.848C72.0983 18.0127 71.7627 18.095 71.3067 18.095Z" fill="white"/>
</svg>
